<?xml version="1.0" encoding="utf-8"?>
<!-- Generator: Adobe Illustrator 25.0.1, SVG Export Plug-In . SVG Version: 6.00 Build 0)  -->
<svg version="1.1" id="Layer_1" xmlns="http://www.w3.org/2000/svg" xmlns:xlink="http://www.w3.org/1999/xlink" x="0px" y="0px"
	 viewBox="0 0 1000 1000" style="enable-background:new 0 0 1000 1000;" xml:space="preserve">
<style type="text/css">
	.st0{fill:url(#SVGID_1_);}
	.st1{fill:url(#SVGID_2_);}
	.st2{fill:url(#SVGID_3_);}
	.st3{fill:url(#SVGID_4_);}
	.st4{fill:url(#SVGID_5_);}
	.st5{fill:url(#SVGID_6_);}
	.st6{fill:url(#SVGID_7_);}
</style>
<rect x="0" width="1000" height="1000"/>
<g>
	
		<linearGradient id="SVGID_1_" gradientUnits="userSpaceOnUse" x1="118.0921" y1="481.0574" x2="580.5129" y2="481.0574" gradientTransform="matrix(1 0 0 -1 0 1002)">
		<stop  offset="0" style="stop-color:#C81685"/>
		<stop  offset="0.5" style="stop-color:#DB6468"/>
		<stop  offset="1" style="stop-color:#E8B743"/>
	</linearGradient>
	<path class="st0" d="M580.5,273.1v247.8c0-1.4,0-2.8,0-4.3c-2.3-89.1-75.2-160.6-164.8-160.6c-91.1,0-164.8,73.8-164.8,164.8
		c0,91.1,73.8,164.8,164.8,164.8c89.6,0,162.5-71.5,164.8-160.6c0-1.4,0-2.8,0-4.3v247.8c-47.2,31.4-103.9,49.8-164.8,49.8
		c-164.4,0-297.6-133.2-297.6-297.6s133.2-297.6,297.6-297.6C476.6,223.4,533.3,241.7,580.5,273.1z"/>
	<g>
		
			<linearGradient id="SVGID_2_" gradientUnits="userSpaceOnUse" x1="815.5304" y1="262.0188" x2="815.5304" y2="872.5107" gradientTransform="matrix(1 0 0 -1 0 1002)">
			<stop  offset="0" style="stop-color:#C81685"/>
			<stop  offset="0.5" style="stop-color:#DB6468"/>
			<stop  offset="1" style="stop-color:#E8B743"/>
		</linearGradient>
		<path class="st1" d="M881.9,215.7v610.5c-36.6,0-69.8-14.9-93.9-38.9c-24-24-38.9-57.3-38.9-93.9v-345
			C749.2,275.1,808.6,215.7,881.9,215.7z"/>
		
			<linearGradient id="SVGID_3_" gradientUnits="userSpaceOnUse" x1="815.5304" y1="175.8163" x2="815.5304" y2="698.8746" gradientTransform="matrix(1 0 0 -1 0 1002)">
			<stop  offset="0" style="stop-color:#C81685"/>
			<stop  offset="0.5" style="stop-color:#DB6468"/>
			<stop  offset="1" style="stop-color:#E8B743"/>
		</linearGradient>
		<path class="st2" d="M881.9,303.1v523.1c-36.6,0-69.8-14.9-93.9-38.9c-24-24-38.9-57.3-38.9-93.9V435.9
			C749.2,362.6,808.6,303.1,881.9,303.1z"/>
	</g>
	<g>
		
			<linearGradient id="SVGID_4_" gradientUnits="userSpaceOnUse" x1="291.0579" y1="262.0188" x2="291.0579" y2="872.5107" gradientTransform="matrix(-1 0 0 -1 937.9 1002)">
			<stop  offset="0" style="stop-color:#C81685"/>
			<stop  offset="0.5" style="stop-color:#DB6468"/>
			<stop  offset="1" style="stop-color:#E8B743"/>
		</linearGradient>
		<path class="st3" d="M580.5,215.7v610.5c36.6,0,69.8-14.9,93.9-38.9c24-24,38.9-57.3,38.9-93.9v-345
			C713.2,275.1,653.8,215.7,580.5,215.7z"/>
		
			<linearGradient id="SVGID_5_" gradientUnits="userSpaceOnUse" x1="291.0579" y1="175.8163" x2="291.0579" y2="698.8746" gradientTransform="matrix(-1 0 0 -1 937.9 1002)">
			<stop  offset="0" style="stop-color:#C81685"/>
			<stop  offset="0.5" style="stop-color:#DB6468"/>
			<stop  offset="1" style="stop-color:#E8B743"/>
		</linearGradient>
		<path class="st4" d="M580.5,303.1v523.1c36.6,0,69.8-14.9,93.9-38.9c24-24,38.9-57.3,38.9-93.9V435.9
			C713.2,362.6,653.8,303.1,580.5,303.1z"/>
	</g>
	
		<linearGradient id="SVGID_6_" gradientUnits="userSpaceOnUse" x1="792.499" y1="903.2501" x2="670.1828" y2="748.2131" gradientTransform="matrix(1 0 0 -1 0 1002)">
		<stop  offset="0" style="stop-color:#C81685"/>
		<stop  offset="0.5" style="stop-color:#DB6468"/>
		<stop  offset="1" style="stop-color:#E8B743"/>
	</linearGradient>
	<path class="st5" d="M793.9,176.4c0,34.6-28,62.7-62.7,62.7c-34.6,0-62.6-28-62.6-62.7c0-34.6,28-62.7,62.6-62.7
		C765.8,113.7,793.9,141.8,793.9,176.4z"/>
	
		<linearGradient id="SVGID_7_" gradientUnits="userSpaceOnUse" x1="288.5148" y1="318.1804" x2="477.8302" y2="651.6255" gradientTransform="matrix(1 0 0 -1 0 1002)">
		<stop  offset="0" style="stop-color:#C81685"/>
		<stop  offset="0.5" style="stop-color:#DB6468"/>
		<stop  offset="1" style="stop-color:#E8B743"/>
	</linearGradient>
	<path class="st6" d="M580.5,525.2c-2.3,108.2-90.7,195.3-199.5,195.3c-110.2,0-199.5-89.3-199.5-199.5
		c0-110.2,89.3-199.5,199.5-199.5c108.7,0,197.2,87,199.5,195.3c-2.3-89.1-75.2-160.6-164.8-160.6c-91.1,0-164.8,73.8-164.8,164.8
		c0,91.1,73.8,164.8,164.8,164.8C505.3,685.8,578.2,614.3,580.5,525.2z"/>
</g>
</svg>
