<svg xmlns="http://www.w3.org/2000/svg" width="256" height="256" viewBox="0 0 100 100"><rect width="100" height="100" rx="20" fill="#ff4f00"></rect><path fill="#000000" d="M35.34 59.54L35.34 26.22L41.56 26.22L41.56 59.44Q41.56 66.18 37.51 69.98Q33.47 73.78 26.73 73.78L26.73 73.78Q19.74 73.78 15.84 70.21Q11.94 66.63 11.94 60.18L11.94 60.18L18.13 60.18Q18.13 64.21 20.34 66.47Q22.54 68.72 26.73 68.72L26.73 68.72Q30.57 68.72 32.94 66.31Q35.30 63.89 35.34 59.54L35.34 59.54ZM80.65 73.14L64.02 51.32L58.28 57.28L58.28 73.14L52.09 73.14L52.09 26.22L58.28 26.22L58.28 49.42L79.13 26.22L86.61 26.22L68.14 46.94L88.06 73.14L80.65 73.14Z"></path></svg>